<?xml version="1.0" standalone="no"?>
<!DOCTYPE svg PUBLIC "-//W3C//DTD SVG 20010904//EN"
 "http://www.w3.org/TR/2001/REC-SVG-20010904/DTD/svg10.dtd">
<svg version="1.0" xmlns="http://www.w3.org/2000/svg"
 width="256.000000pt" height="256.000000pt" viewBox="0 0 256.000000 256.000000"
 preserveAspectRatio="xMidYMid meet">

<g transform="translate(0.000000,256.000000) scale(0.100000,-0.100000)"
fill="#0460a0" stroke="none">
<path d="M1250 2195 l0 -55 -50 0 -50 0 0 -45 0 -45 50 0 50 0 0 -73 0 -74
-290 -333 -290 -334 26 -45 c15 -25 32 -51 38 -58 8 -9 76 63 275 293 145 167
268 304 272 304 4 0 126 -137 271 -304 145 -168 265 -305 268 -305 4 -1 55 82
68 110 2 4 -128 157 -287 340 l-291 334 0 73 0 72 55 0 55 0 0 44 0 45 -52 3
-53 3 -3 53 c-3 50 -4 52 -33 52 -29 0 -29 -1 -29 -55z"/>
<path d="M1071 1398 l-211 -243 0 -422 0 -423 134 0 134 0 4 208 c3 197 4 209
28 257 49 98 136 122 205 55 55 -53 65 -105 65 -326 l0 -195 135 3 135 3 1
420 0 420 -103 120 c-57 65 -151 175 -210 242 l-107 123 -210 -242z"/>
<path d="M673 826 l-133 -108 0 -204 0 -204 130 0 c96 0 132 3 135 13 3 7 4
147 3 311 l-3 299 -132 -107z"/>
<path d="M1760 621 l0 -311 130 0 130 0 -2 206 -3 207 -127 104 -128 104 0
-310z"/>
</g>
</svg>
